<svg width="32" height="32" viewBox="0 0 32 32" fill="none" xmlns="http://www.w3.org/2000/svg">
  <defs>
    <linearGradient id="keepnoto-gradient" x1="0" y1="16" x2="55.9429" y2="16" gradientUnits="userSpaceOnUse">
      <stop stop-color="#4D2233"/>
      <stop offset="1" stop-color="#B97994"/>
    </linearGradient>
  </defs>
  <path d="M9.6178 16.0015C15.04 12.7355 18.6667 6.79125 18.6667 0H13.3334C13.3334 7.36382 7.36383 13.3334 0 13.3334V18.6697C3.58773 18.6697 6.84178 20.0841 9.24209 22.3898C9.30549 22.4507 9.36829 22.5122 9.43048 22.5743C10.3045 23.4485 11.0574 24.443 11.6623 25.5309C12.2886 23.5603 13.1935 21.7139 14.3306 20.0378C13.9724 19.6091 13.5954 19.1967 13.2009 18.8022L13.1998 18.8012C12.1278 17.7303 10.9251 16.7884 9.6178 16.0015Z" fill="url(#keepnoto-gradient)"/>
  <path d="M22.3822 15.9985C16.96 19.2645 13.3333 25.2087 13.3333 32H18.6666C18.6666 24.6361 24.6362 18.6666 32 18.6666V13.3303C28.4122 13.3303 25.1582 11.9159 22.7579 9.61023C22.6945 9.54933 22.6317 9.48778 22.5695 9.42566C21.6954 8.55149 20.9425 7.55697 20.3377 6.4691C19.7114 8.43967 18.8065 10.2861 17.6693 11.9622C18.0276 12.3909 18.4046 12.8033 18.7991 13.1978L18.8001 13.1988C19.8721 14.2697 21.0749 15.2116 22.3822 15.9985Z" fill="url(#keepnoto-gradient)"/>
</svg>